<svg xmlns="http://www.w3.org/2000/svg" viewBox="0.308594 0.189453 13.47 13.49">
  <path d="M 7.0449219 0.18945312 C 5.818965 0.18945312 4.6894337 0.5018163 3.71875 1.046875 L 7.3320312 2.4394531 L 10.167969 0.96679688 C 9.2331569 0.47117828 8.1707623 0.18945312 7.0449219 0.18945312 z M 1.5019531 3.0742188 C 0.74552119 4.1742335 0.30859375 5.5104369 0.30859375 6.9472656 C 0.30859375 7.872232 0.49756027 8.7546827 0.83789062 9.5585938 L 2.4394531 6.0039062 L 1.5019531 3.0742188 z M 13.132812 4.0722656 L 11.560547 7.3320312 L 12.636719 10.693359 C 13.358287 9.620801 13.779297 8.3313984 13.779297 6.9472656 C 13.779297 5.9218433 13.546433 4.9465735 13.132812 4.0722656 z M 7.3320312 11.560547 L 4.2226562 13.060547 C 5.0819109 13.459787 6.0386367 13.683594 7.0449219 13.683594 C 8.3730449 13.683594 9.6123694 13.294296 10.658203 12.625 L 7.3320312 11.560547 z " fill="#ffffff"/>
</svg>